name Walk7.mot
datacolumns 19
datarows 10
range 2.33500000 2.38000000
endheader

                time	   L_ground_force_vx	   L_ground_force_vy	   L_ground_force_vz	   L_ground_force_px	   L_ground_force_py	   L_ground_force_pz	   R_ground_force_vx	   R_ground_force_vy	   R_ground_force_vz	   R_ground_force_px	   R_ground_force_py	   R_ground_force_pz	   L_ground_torque_x	   L_ground_torque_y	   L_ground_torque_z	   R_ground_torque_x	   R_ground_torque_y	   R_ground_torque_z	
          2.33500000	         -1.41833472	         74.34156915	         -0.41729000	          0.00209820	          0.00000000	          0.00108287	         -0.00000000	          0.00000000	          0.00000000	          0.00000000	          0.00000000	          0.00000000	          0.00000000	          0.05341450	          0.00000000	          0.00000000	          0.00000000	          0.00000000	
          2.34000000	         -5.32373417	        111.52719083	         -0.53847598	         -0.06550771	          0.00000000	         -0.00013997	         -0.00000000	          0.00000000	          0.00000000	          0.00000000	          0.00000000	          0.00000000	          0.00000000	          0.07617915	          0.00000000	          0.00000000	          0.00000000	          0.00000000	
          2.34500000	        -10.47317325	        153.57501381	         -0.93491681	         -0.12862484	          0.00000000	         -0.00123092	         -0.00000000	          0.00000000	          0.00000000	          0.00000000	          0.00000000	          0.00000000	          0.00000000	          0.10693611	          0.00000000	          0.00000000	          0.00000000	          0.00000000	
          2.35000000	        -16.98849807	        198.64776128	         -1.64142007	         -0.18380561	          0.00000000	         -0.00214206	         -0.00000000	          0.00000000	          0.00000000	          0.00000000	          0.00000000	          0.00000000	          0.00000000	          0.14579941	          0.00000000	          0.00000000	          0.00000000	          0.00000000	
          2.35500000	        -24.90985783	        244.72045717	         -2.58301712	         -0.22931539	          0.00000000	         -0.00287753	         -0.00000000	          0.00000000	          0.00000000	         -0.00000000	          0.00000000	         -0.00000000	          0.00000000	          0.19323658	          0.00000000	          0.00000000	          0.00000000	          0.00000000	
          2.36000000	        -34.10546596	        290.23806396	         -3.55134186	         -0.26479239	          0.00000000	         -0.00347395	         -0.00000000	          0.00000000	          0.00000000	         -0.00000000	          0.00000000	         -0.00000000	          0.00000000	          0.24978795	          0.00000000	          0.00000000	          0.00000000	          0.00000000	
          2.36500000	        -44.24176798	        334.09524989	         -4.29473595	         -0.29079077	          0.00000000	         -0.00397858	         -0.00000000	         -0.00000000	          0.00000000	         -0.00000000	          0.00000000	         -0.00000000	          0.00000000	          0.31499673	          0.00000000	          0.00000000	          0.00000000	          0.00000000	
          2.37000000	        -54.86253056	        375.52966505	         -4.61331949	         -0.30840647	          0.00000000	         -0.00443502	         -0.00000000	         -0.00000001	         -0.00000000	         -0.00000000	          0.00000000	         -0.00000000	          0.00000000	          0.38702506	          0.00000000	          0.00000000	          0.00000000	          0.00000000	
          2.37500000	        -65.55805461	        414.13922700	         -4.38721113	         -0.31899308	          0.00000000	         -0.00487785	         -0.00000000	         -0.00000001	         -0.00000000	         -0.00000000	          0.00000000	         -0.00000000	          0.00000000	          0.46243031	          0.00000000	          0.00000000	          0.00000000	          0.00000000	
          2.38000000	        -76.12092433	        449.85376297	         -3.56322699	         -0.32396267	          0.00000000	         -0.00532988	         -0.00000000	         -0.00000002	         -0.00000000	         -0.00000000	          0.00000000	         -0.00000000	          0.00000000	          0.53832496	          0.00000000	          0.00000000	          0.00000000	          0.00000000	
